Coordinates
version=1
nRows=49
nColumns=12
inDegrees=yes

Units are S.I. units (second, meters, Newtons, ...)
Angles are in degrees

endheader
time	SC_y	SC_z	SC_x	AC_y	AC_z	AC_x	GH_y	GH_z	GH_yy	EL_x	PS_y
       0.0              -19.13          18.58          18.72          55.92         -5.682         -11.62          124.7          53.39          1.866          31.52          105.7
   0.01548              -19.13          18.58          18.72          55.92         -5.682         -11.62          124.7          53.38          1.891          31.53          105.7
   0.03096              -19.14          18.58          18.73          55.91         -5.682         -11.62          124.7          53.37          1.918          31.55          105.7
   0.04644              -19.14          18.59          18.74          55.91         -5.682         -11.62          124.7          53.36          1.946          31.56          105.7
   0.06192              -19.15          18.59          18.75           55.9         -5.683         -11.62          124.7          53.35          1.977          31.58          105.7
   0.07739              -19.16          18.59          18.75           55.9         -5.683         -11.62          124.7          53.34           2.01           31.6          105.7
   0.09287              -19.16          18.59          18.76          55.89         -5.683         -11.62          124.7          53.33          2.044          31.62          105.7
    0.1084              -19.17           18.6          18.77          55.89         -5.683         -11.62          124.7          53.31          2.081          31.64          105.7
    0.1238              -19.18           18.6          18.78          55.88         -5.683         -11.62          124.6           53.3          2.121          31.66          105.7
    0.1393              -19.19           18.6          18.79          55.88         -5.683         -11.62          124.6          53.28          2.164          31.68          105.7
    0.1548               -19.2          18.61           18.8          55.87         -5.683         -11.62          124.6          53.26           2.21           31.7          105.7
    0.1703              -19.21          18.61          18.81          55.86         -5.684         -11.62          124.6          53.25          2.259          31.73          105.7
    0.1857              -19.22          18.62          18.83          55.86         -5.684         -11.62          124.6          53.23          2.312          31.76          105.7
    0.2012              -19.23          18.62          18.84          55.85         -5.684         -11.62          124.6          53.21           2.37          31.79          105.7
    0.2167              -19.25          18.62          18.86          55.84         -5.684         -11.62          124.6          53.18          2.432          31.82          105.7
    0.2322              -19.26          18.63          18.87          55.83         -5.684         -11.62          124.6          53.16          2.499          31.86          105.7
    0.2477              -19.28          18.64          18.89          55.82         -5.685         -11.62          124.5          53.13          2.573           31.9          105.7
    0.2631              -19.29          18.64          18.91          55.81         -5.685         -11.63          124.5           53.1          2.652          31.94          105.7
    0.2786              -19.31          18.65          18.93           55.8         -5.685         -11.63          124.5          53.07          2.739          31.99          105.8
    0.2941              -19.33          18.66          18.96          55.79         -5.686         -11.63          124.5          53.03          2.835          32.04          105.8
    0.3096              -19.36          18.66          18.98          55.77         -5.686         -11.63          124.4          52.99           2.94           32.1          105.8
    0.3251              -19.38          18.67          19.01          55.75         -5.687         -11.63          124.4          52.95          3.055          32.16          105.8
    0.3405              -19.41          18.68          19.04          55.74         -5.687         -11.63          124.4           52.9          3.182          32.23          105.8
     0.356              -19.44          18.69          19.08          55.72         -5.688         -11.63          124.4          52.85          3.323           32.3          105.8
    0.3715              -19.47          18.71          19.12           55.7         -5.688         -11.63          124.3          52.79           3.48          32.39          105.8
     0.387              -19.51          18.72          19.16          55.67         -5.689         -11.63          124.3          52.73          3.655          32.48          105.8
    0.4025              -19.55          18.73          19.21          55.64          -5.69         -11.64          124.2          52.66          3.852          32.58          105.8
    0.4179               -19.6          18.75          19.26          55.61          -5.69         -11.64          124.2          52.57          4.072           32.7          105.8
    0.4334              -19.65          18.77          19.32          55.58         -5.691         -11.64          124.1          52.48          4.321          32.84          105.8
    0.4489              -19.71          18.79          19.39          55.54         -5.692         -11.64          124.0          52.38          4.604          32.99          105.9
    0.4644              -19.78          18.82          19.47           55.5         -5.694         -11.65          124.0          52.26          4.927          33.16          105.9
    0.4798              -19.86          18.85          19.56          55.44         -5.695         -11.65          123.9          52.12          5.298          33.36          105.9
    0.4953              -19.95          18.88          19.67          55.39         -5.697         -11.65          123.8          51.96          5.726          33.59          105.9
    0.5108              -20.06          18.92          19.79          55.32         -5.698         -11.66          123.6          51.78          6.223          33.86          105.9
    0.5263              -20.18          18.96          19.93          55.24         -5.701         -11.66          123.5          51.56          6.805          34.17          106.0
    0.5418              -20.33          19.02           20.1          55.14         -5.703         -11.67          123.3          51.31          7.491          34.54          106.0
    0.5572               -20.5          19.08           20.3          55.03         -5.706         -11.68          123.1           51.0          8.307          34.97          106.0
    0.5727              -20.71          19.16          20.54          54.89          -5.71         -11.69          122.9          50.64          9.284           35.5          106.1
    0.5882              -20.97          19.25          20.84          54.73         -5.714          -11.7          122.6           50.2          10.47          36.13          106.2
    0.6037              -21.27          19.36          21.19          54.53          -5.72         -11.71          122.3          49.67          11.91          36.91          106.2
    0.6192              -21.66           19.5          21.63          54.28         -5.726         -11.73          121.8          49.01          13.69          37.86          106.3
    0.6346              -22.13          19.67          22.18          53.98         -5.735         -11.75          121.3          48.18          15.91          39.05          106.5
    0.6501              -22.73          19.89          22.87          53.59         -5.745         -11.78          120.6          47.15          18.71          40.55          106.6
    0.6656              -23.49          20.16          23.74           53.1         -5.759         -11.81          119.7          45.83          22.27          42.46          106.8
    0.6811              -24.47          20.51          24.86          52.47         -5.776         -11.85          118.6          44.14          26.83          44.91          107.0
    0.6966              -25.72          20.97           26.3          51.66         -5.798         -11.91          117.2          41.97          32.68          48.04          107.3
     0.712              -27.31          21.54          28.14          50.63         -5.826         -11.98          115.4           39.2          40.14          52.04          107.7
    0.7275              -29.32          22.27          30.45          49.33         -5.861         -12.07          113.1          35.72          49.53          57.08          108.2
     0.743              -31.77          23.16          33.27          47.74         -5.904         -12.18          110.3          31.48          60.98          63.22          108.9
